<svg aria-hidden="true" style="position: absolute; width: 0; height: 0; overflow: hidden;" version="1.1" xmlns="http://www.w3.org/2000/svg" xmlns:xlink="http://www.w3.org/1999/xlink">
    <defs>
        <symbol id="icon-tooth" viewBox="0 0 32 32">
            <path d="M7.226 10.237v-0.173h-1.032v0.173c0 0.296 0.008 0.591 0.023 0.886l1.031-0.053c-0.014-0.277-0.022-0.554-0.022-0.833z"></path>
            <path d="M7.33 12.070l-1.026 0.117c0.295 2.6 1.202 5.141 2.62 7.347l0.868-0.558c-1.334-2.074-2.185-4.462-2.463-6.906z"></path>
            <path d="M19.025 5.013c-0.894 0.604-1.94 0.923-3.025 0.923s-2.131-0.319-3.025-0.922l-0.578 0.856c1.065 0.719 2.311 1.099 3.602 1.099s2.537-0.38 3.603-1.099l-0.578-0.856z"></path>
            <path d="M4.645 19.871h-1.032c0 1.992-1.621 3.613-3.613 3.613v1.032c1.992 0 3.613 1.621 3.613 3.613h1.032c0-1.992 1.621-3.613 3.613-3.613v-1.032c-1.992 0-3.613-1.621-3.613-3.613zM4.129 26.010c-0.444-0.862-1.148-1.566-2.010-2.010 0.862-0.444 1.566-1.148 2.010-2.010 0.444 0.862 1.148 1.566 2.010 2.010-0.862 0.444-1.566 1.148-2.010 2.010z"></path>
            <path d="M28.387 6.452h-0.988c-0.978-2.431-3.37-4.129-6.082-4.129-1.28 0-2.484 0.346-3.481 1.001-1.104 0.727-2.568 0.727-3.673 0-0.997-0.654-2.2-1.001-3.481-1.001-3.614 0-6.554 2.94-6.554 6.554v1.361c0 3.701 1.058 7.301 3.059 10.414 1.077 1.675 1.867 3.503 2.35 5.435l0.562 2.247c0.197 0.792 0.905 1.344 1.72 1.344 0.885 0 1.623-0.635 1.754-1.511l1.158-7.72c0.095-0.632 0.629-1.092 1.268-1.092s1.173 0.459 1.268 1.092l1.158 7.72c0.131 0.875 0.869 1.511 1.754 1.511 0.815 0 1.523-0.552 1.72-1.344l0.562-2.247c0.483-1.932 1.274-3.761 2.351-5.435 1.176-1.83 2.037-3.874 2.54-5.995-0.001 0.018 0.002 0.036 0.002 0.054h1.032c0-1.992 1.621-3.613 3.613-3.613v-1.032c-1.992 0-3.613-1.621-3.613-3.613zM23.944 20.093c-1.138 1.77-1.973 3.703-2.484 5.743l-0.563 2.247c-0.082 0.331-0.378 0.562-0.718 0.562-0.37 0-0.678-0.266-0.733-0.632l-1.158-7.72c-0.171-1.142-1.134-1.971-2.289-1.971s-2.118 0.828-2.289 1.971l-1.158 7.72c-0.054 0.366-0.363 0.632-0.733 0.632-0.341 0-0.636-0.231-0.719-0.562l-0.562-2.247c-0.51-2.041-1.346-3.974-2.484-5.743-1.893-2.946-2.894-6.354-2.894-9.855v-1.361c0-3.045 2.477-5.522 5.522-5.522 1.078 0 2.086 0.287 2.914 0.831 0.723 0.475 1.532 0.717 2.404 0.717s1.681-0.242 2.403-0.717c0.828-0.544 1.836-0.831 2.914-0.831 2.723 0 5.073 2.029 5.46 4.678l0.022 0.336c-0.64 1.016-1.769 1.695-3.057 1.695v1.032c1.212 0 2.284 0.602 2.939 1.52-0.348 2.647-1.294 5.231-2.737 7.476zM27.871 12.591c-0.444-0.862-1.148-1.566-2.010-2.010 0.862-0.444 1.566-1.148 2.010-2.010 0.444 0.862 1.148 1.566 2.010 2.010-0.862 0.444-1.566 1.148-2.010 2.010z"></path>
        </symbol>
        <symbol id="icon-tooth-1" viewBox="0 0 32 32">
            <path d="M24.123 2.937c-0.345 0-0.625 0.28-0.625 0.625s0.28 0.625 0.625 0.625c0.345 0 0.625-0.28 0.625-0.625s-0.28-0.625-0.625-0.625z"></path>
            <path d="M24.695 0.5c-3.92-1.257-7.195 0.15-8.697 1.016-1.502-0.867-4.777-2.273-8.697-1.016-5.192 1.665-7.626 9.247-3.463 15.364 1.972 2.897 2.236 5.132 2.514 7.497 0.204 1.732 0.415 3.523 1.297 5.616 0.593 1.407 1.431 3.018 2.671 3.017 0.011 0 0.023-0 0.034-0 0.997-0.024 1.801-1.012 2.605-3.207 0.41-1.118 0.672-2.438 0.926-3.714 0.457-2.297 0.93-4.672 2.118-4.681 0.002 0 0.004 0 0.006 0 1.175 0 1.647 2.376 2.103 4.674 0.254 1.28 0.517 2.604 0.927 3.721 0.805 2.197 1.609 3.188 2.605 3.211 0.011 0 0.023 0 0.034 0 1.237 0 2.077-1.613 2.67-3.023 0.843-2.001 1.063-3.787 1.277-5.515 0.3-2.432 0.584-4.73 2.539-7.606 4.212-6.196 1.637-13.721-3.468-15.357zM27.129 15.155c-2.125 3.126-2.441 5.682-2.746 8.155-0.212 1.719-0.413 3.342-1.188 5.183-0.92 2.184-1.453 2.258-1.521 2.258-0.001 0-0.001 0-0.002 0-0.024-0.001-0.599-0.041-1.461-2.392-0.376-1.026-0.629-2.301-0.874-3.534-0.275-1.384-0.534-2.692-0.962-3.713-0.547-1.306-1.343-1.968-2.365-1.968-0.006 0-0.011 0-0.017 0-1.026 0.007-1.825 0.674-2.373 1.983-0.428 1.020-0.687 2.324-0.962 3.704-0.245 1.23-0.498 2.501-0.874 3.528-0.86 2.346-1.437 2.386-1.461 2.387-0.056 0.001-0.596-0.050-1.523-2.253-0.813-1.931-1.005-3.556-1.207-5.277-0.284-2.411-0.578-4.904-2.723-8.054-3.753-5.514-1.491-12.090 2.812-13.47 3.741-1.2 6.829 0.359 7.983 1.085 0.203 0.128 0.462 0.128 0.665 0 1.154-0.726 4.243-2.284 7.983-1.085 4.387 1.406 6.493 8.055 2.816 13.464z"></path>
            <path d="M27.317 6.47c-0.203-0.589-0.472-1.132-0.8-1.612-0.195-0.285-0.583-0.359-0.869-0.164s-0.359 0.583-0.164 0.869c0.265 0.388 0.484 0.83 0.65 1.314 0.623 1.808 0.46 3.917-0.446 5.787-0.151 0.311-0.021 0.684 0.29 0.835s0.684 0.021 0.835-0.29c1.049-2.165 1.233-4.622 0.503-6.739z"></path>
            <path d="M13.727 8.55l-2.516-0.839-0.839-2.516c-0.085-0.255-0.324-0.427-0.593-0.427s-0.508 0.172-0.593 0.427l-0.839 2.516-2.516 0.839c-0.255 0.085-0.427 0.324-0.427 0.593s0.172 0.508 0.427 0.593l2.516 0.839 0.839 2.516c0.085 0.255 0.324 0.427 0.593 0.427s0.508-0.172 0.593-0.427l0.839-2.516 2.516-0.839c0.255-0.085 0.427-0.324 0.427-0.593s-0.172-0.508-0.427-0.593zM10.519 9.487c-0.187 0.062-0.333 0.209-0.395 0.395l-0.345 1.034-0.345-1.034c-0.062-0.187-0.209-0.333-0.395-0.395l-1.034-0.345 1.034-0.345c0.187-0.062 0.333-0.209 0.395-0.395l0.345-1.034 0.345 1.034c0.062 0.187 0.209 0.333 0.395 0.395l1.034 0.345-1.034 0.345z"></path>
        </symbol>
        <symbol id="icon-dental" viewBox="0 0 32 32">
            <path d="M29.207 5.684c-0.436-1.65-1.713-3.225-3.595-4.435-2.32-1.492-5.598-1.659-8.557-0.434l-0.102 0.044c-0.051 0.022-0.1 0.044-0.15 0.061-0.248 0.086-0.438 0.16-0.594 0.22-0.493 0.191-0.493 0.19-1.302-0.048-2.312-0.681-5.255-1.361-7.512-0.561-3.056 1.083-5.765 4.667-4.927 10.233 0.099 0.654 0.194 1.312 0.291 1.975 0.23 1.575 0.467 3.205 0.744 4.813v0.001c0.13 0.749 0.574 1.414 1.219 1.824 0.434 0.276 0.934 0.418 1.435 0.418 0.233 0 0.466-0.031 0.693-0.093 1.223-0.335 2.582-0.585 4.088-0.756l0.708 3.237-1.252 0.228c-0.29 0.053-0.482 0.33-0.429 0.62 0.046 0.258 0.271 0.438 0.524 0.438 0.032 0 0.063-0.003 0.096-0.009l1.289-0.234 0.46 2.104-1.416 0.283c-0.289 0.058-0.476 0.339-0.418 0.628 0.051 0.254 0.274 0.429 0.522 0.429 0.034 0 0.070-0.003 0.105-0.011l1.434-0.287 0.493 2.252-1.058 0.187c-0.29 0.051-0.484 0.327-0.432 0.618 0.045 0.259 0.27 0.441 0.524 0.441 0.031 0 0.062-0.003 0.093-0.009l1.1-0.194 0.511 2.336h5.124l0.758-3.464 1.572-0.277c0.29-0.051 0.484-0.327 0.433-0.618s-0.329-0.488-0.618-0.433l-1.141 0.201 0.575-2.627 1.296-0.259c0.288-0.058 0.476-0.339 0.418-0.628-0.057-0.289-0.335-0.478-0.628-0.418l-0.838 0.167 0.463-2.119 1.108-0.202c0.29-0.053 0.482-0.33 0.429-0.62s-0.33-0.487-0.62-0.429l-0.671 0.122 0.321-1.468c1.288 0.142 2.453 0.34 3.52 0.605 0.725 0.181 1.469 0.066 2.099-0.321 0.615-0.379 1.043-0.976 1.204-1.681 0.9-3.948 1.597-8.116 0.61-11.849zM18.059 30.933h-3.408l-0.318-1.455 4.207-0.742-0.48 2.197zM18.786 27.61l-4.681 0.826-0.498-2.276 5.747-1.149-0.569 2.599zM19.603 23.874l-6.224 1.245-0.456-2.085 7.148-1.3-0.468 2.14zM20.318 20.605l-7.623 1.386-0.689-3.15c0.051-0.004 0.101-0.010 0.153-0.014 0.153-0.012 0.309-0.023 0.464-0.034 0.246-0.018 0.495-0.034 0.749-0.047 0.142-0.007 0.285-0.015 0.43-0.021 0.29-0.013 0.585-0.023 0.884-0.031 0.121-0.003 0.24-0.008 0.363-0.011 0.427-0.009 0.861-0.015 1.307-0.015 0.427 0 0.84 0.005 1.245 0.012 0.203 0.004 0.399 0.010 0.596 0.016 0.182 0.005 0.364 0.010 0.542 0.017 0.267 0.011 0.529 0.023 0.787 0.037 0.085 0.005 0.171 0.009 0.256 0.014 0.303 0.018 0.602 0.039 0.894 0.062 0.011 0.001 0.021 0.002 0.031 0.003l-0.389 1.777zM27.558 17.296c-0.097 0.424-0.354 0.783-0.723 1.010-0.383 0.236-0.838 0.305-1.282 0.194-1.081-0.268-2.256-0.47-3.547-0.616l0.001-0.005-0.308-0.030c-1.579-0.165-3.336-0.247-5.344-0.247-0.483 0-0.951 0.006-1.408 0.016-0.128 0.003-0.25 0.009-0.375 0.013-0.322 0.010-0.644 0.019-0.955 0.034-0.182 0.009-0.357 0.021-0.535 0.031-0.239 0.014-0.48 0.028-0.715 0.045-0.218 0.016-0.429 0.036-0.642 0.055-0.141 0.013-0.285 0.022-0.424 0.037l-0.595 0.060 0.002 0.007c-1.518 0.178-2.895 0.433-4.14 0.773-0.436 0.119-0.888 0.049-1.275-0.197-0.391-0.249-0.661-0.652-0.74-1.106-0.276-1.595-0.511-3.217-0.74-4.785-0.097-0.664-0.193-1.324-0.291-1.98-0.539-3.578 0.56-7.77 4.228-9.070 1.99-0.704 4.865-0.007 6.854 0.579 1.063 0.314 1.23 0.315 1.989 0.019 0.146-0.056 0.324-0.125 0.558-0.207 0.075-0.026 0.149-0.058 0.224-0.090l0.085-0.037c2.643-1.092 5.544-0.96 7.573 0.345 1.657 1.066 2.773 2.42 3.142 3.811 0.929 3.511 0.252 7.525-0.618 11.34z"></path>
        </symbol>
        <symbol id="icon-dentist-2" viewBox="0 0 32 32">
            <path d="M12.068 14.72l-1.662 0.666c-0.568 0.226-1.211-0.052-1.437-0.62-0.116-0.291-0.102-0.618 0.036-0.899l0.366-0.733c0.205-0.411 0.125-0.907-0.2-1.231l-2.551-2.551 0.69-0.69c0.208-0.208 0.208-0.546 0-0.754l-1.756-1.756 0.156-0.156c0.204-0.204 0.209-0.534 0.011-0.743l-4.8-5.084c-0.202-0.214-0.54-0.224-0.754-0.022-0.107 0.101-0.167 0.241-0.167 0.387v6.933c0 0.157 0.069 0.306 0.189 0.407l1.6 1.353c0.212 0.179 0.525 0.166 0.721-0.030l0.156-0.158 1.756 1.756c0.208 0.208 0.546 0.208 0.754 0l0.69-0.69 2.551 2.551-0.364 0.731c-0.536 1.073-0.101 2.377 0.972 2.913 0.555 0.277 1.202 0.304 1.778 0.073l1.663-0.665-0.399-0.988zM2.29 7.909l-0.187 0.187-1.036-0.876v-5.344l3.523 3.733-2.3 2.3zM4.8 9.663l-1.379-1.379 1.379-1.379 1.379 1.381-1.379 1.378z"></path>
            <path d="M31.671 15.507c-0.199-0.083-0.429-0.037-0.581 0.116l-7.467 7.467c-0.208 0.208-0.208 0.546 0 0.754l0.423 0.423-2.093 2.093c-0.828-0.508-1.782-0.771-2.753-0.759-2.353 0-4.267 1.435-4.267 3.2s1.914 3.2 4.267 3.2c2.353 0 4.267-1.435 4.267-3.2-0.011-0.649-0.259-1.271-0.698-1.748l2.031-2.031 0.423 0.423c0.208 0.208 0.546 0.208 0.754 0l5.867-5.867c0.1-0.1 0.156-0.236 0.156-0.377v-3.2c0-0.216-0.13-0.41-0.329-0.493zM19.2 30.933c-1.734 0-3.2-0.977-3.2-2.133s1.466-2.133 3.2-2.133 3.2 0.977 3.2 2.133-1.466 2.133-3.2 2.133zM30.933 18.979l-5.333 5.333-0.846-0.846 6.179-6.179v1.692z"></path>
            <path d="M18.389 18.023c-0.22-1.319-1.468-2.21-2.788-1.99-1.020 0.17-1.82 0.97-1.99 1.99l-1.611 9.667c-0.121 0.723-0.805 1.211-1.528 1.091-0.573-0.096-1.018-0.553-1.097-1.129l-1.38-10.124c-0.010-0.076-0.036-0.149-0.076-0.213l-0.297-0.475c-0.903-1.444-1.554-3.031-1.925-4.693l-1.042 0.233c0.398 1.781 1.096 3.482 2.065 5.029l0.236 0.378 1.365 10.011c0.178 1.31 1.385 2.227 2.695 2.049 1.040-0.142 1.866-0.944 2.038-1.978l1.611-9.667c0.107-0.654 0.672-1.134 1.335-1.133 0.663-0.002 1.23 0.478 1.337 1.133l1.070 6.422 1.052-0.176-1.070-6.422z"></path>
            <path d="M21.005 2.133c-0.911 0-1.813 0.185-2.65 0.544-1.504 0.641-3.205 0.641-4.709 0-2.643-1.133-5.713-0.461-7.641 1.671l0.791 0.718c1.074-1.187 2.599-1.865 4.199-1.867 0.767-0.001 1.525 0.155 2.23 0.458 1.773 0.756 3.777 0.756 5.55 0 2.874-1.232 6.203 0.1 7.434 2.974 0.302 0.705 0.458 1.463 0.458 2.23 0.001 2.822-0.792 5.588-2.289 7.981l-0.297 0.475c-0.040 0.065-0.066 0.138-0.076 0.213l-0.436 3.2 1.057 0.144 0.421-3.086 0.236-0.378c1.603-2.563 2.453-5.526 2.451-8.549-0-3.716-3.013-6.728-6.729-6.728z"></path>
        </symbol>
        <symbol id="icon-dentist-5" viewBox="0 0 32 32">
            <path d="M11.2 6.4c-0.294 0-0.533-0.239-0.533-0.533s0.239-0.533 0.533-0.533c1.542 0 3.692-2.172 4.39-3.008 0.189-0.226 0.525-0.257 0.751-0.068s0.257 0.524 0.068 0.751c-0.289 0.347-2.893 3.392-5.21 3.392z"></path>
            <path d="M22.4 17.6h-12.8c-0.294 0-0.533-0.239-0.533-0.533v-8.533c0-0.294 0.239-0.533 0.533-0.533h12.8c0.294 0 0.533 0.239 0.533 0.533v8.533c0 0.294-0.239 0.533-0.533 0.533zM10.133 16.533h11.733v-7.467h-11.733z"></path>
            <path d="M14.4 15.466h-2.133c-0.294 0-0.533-0.239-0.533-0.533v-4.267c0-0.294 0.239-0.533 0.533-0.533h2.133c0.294 0 0.533 0.239 0.533 0.533v4.267c0 0.295-0.239 0.533-0.533 0.533zM12.8 14.4h1.067v-3.2h-1.067z"></path>
            <path d="M19.733 15.466h-2.133c-0.294 0-0.533-0.239-0.533-0.533v-4.267c0-0.294 0.239-0.533 0.533-0.533h2.133c0.294 0 0.533 0.239 0.533 0.533v4.267c0 0.295-0.239 0.533-0.533 0.533zM18.133 14.4h1.067v-3.2h-1.067z"></path>
            <path d="M9.6 14.4h-9.066c-0.294 0-0.533-0.239-0.533-0.533v-2.133c0-0.294 0.239-0.533 0.533-0.533h9.066c0.294 0 0.533 0.239 0.533 0.533v2.133c0 0.294-0.239 0.533-0.533 0.533zM1.067 13.333h8v-1.067h-8z"></path>
            <path d="M31.466 14.4h-9.066c-0.294 0-0.533-0.239-0.533-0.533v-2.133c0-0.294 0.239-0.533 0.533-0.533h9.066c0.294 0 0.533 0.239 0.533 0.533v2.133c0 0.294-0.239 0.533-0.533 0.533zM22.933 13.333h8v-1.067h-8z"></path>
            <path d="M12.267 13.333h-2.667c-0.294 0-0.533-0.239-0.533-0.533s0.239-0.533 0.533-0.533h2.667c0.294 0 0.533 0.239 0.533 0.533s-0.239 0.533-0.533 0.533z"></path>
            <path d="M17.6 13.333h-3.2c-0.294 0-0.533-0.239-0.533-0.533s0.239-0.533 0.533-0.533h3.2c0.294 0 0.533 0.239 0.533 0.533s-0.239 0.533-0.533 0.533z"></path>
            <path d="M22.4 13.333h-2.667c-0.294 0-0.533-0.239-0.533-0.533s0.239-0.533 0.533-0.533h2.667c0.294 0 0.533 0.239 0.533 0.533s-0.239 0.533-0.533 0.533z"></path>
            <path d="M23.541 32c-0.096 0-0.193-0.012-0.29-0.035-0.415-0.102-0.744-0.421-0.859-0.831-1.077-3.838-3.636-10.334-6.392-10.334s-5.315 6.496-6.391 10.334c-0.115 0.41-0.444 0.729-0.859 0.831-0.417 0.102-0.842-0.021-1.136-0.331-2.492-2.63-2.289-7.965-2.279-8.19-0.001-1.799 0.499-3.94 0.919-5.414 0.324-1.14 0.11-2.362-0.587-3.351-0.106-0.15-0.207-0.3-0.304-0.45-0.005-0.009-0.033-0.054-0.038-0.063-0.094-0.165-0.103-0.385-0.008-0.549s0.261-0.283 0.451-0.283h3.299v-1.067h-4.382c-0.219 0-0.415-0.133-0.496-0.337-0.655-1.656-0.988-3.42-0.988-5.241v-1.355c0-4.218 4.535-5.333 6.933-5.333 3.038 0 5.069 1.326 5.867 1.962 0.798-0.635 2.828-1.962 5.867-1.962 2.398 0 6.933 1.115 6.933 5.333v1.355c0 1.821-0.333 3.585-0.989 5.241-0.080 0.204-0.277 0.337-0.495 0.337h-4.382v1.067h3.299c0.195 0 0.374 0.106 0.468 0.277s0.086 0.379-0.018 0.543l-0.044 0.074c-0.097 0.15-0.199 0.3-0.305 0.451-0.698 0.99-0.912 2.212-0.587 3.351 0.42 1.474 0.92 3.614 0.92 5.437 0.010 0.203 0.213 5.537-2.279 8.167-0.225 0.238-0.528 0.367-0.846 0.367zM16 19.733c3.99 0 6.687 8.505 7.419 11.112 0.016 0.058 0.062 0.077 0.088 0.084 0.043 0.011 0.078 0.001 0.106-0.029 2.185-2.305 1.99-7.359 1.988-7.41-0.001-1.722-0.479-3.759-0.88-5.168-0.377-1.324-0.185-2.732 0.523-3.921h-2.843c-0.294 0-0.533-0.239-0.533-0.533v-2.133c0-0.294 0.239-0.533 0.533-0.533h4.548c0.522-1.433 0.786-2.948 0.786-4.511v-1.355c0-4.206-5.628-4.266-5.867-4.267-3.449 0-5.47 1.958-5.49 1.978-0.209 0.206-0.546 0.206-0.753-0.001-0.019-0.019-2.040-1.977-5.49-1.977-0.239 0.001-5.867 0.060-5.867 4.267v1.355c0 1.563 0.264 3.079 0.786 4.511h4.548c0.294 0 0.533 0.239 0.533 0.533v2.133c0 0.294-0.239 0.533-0.533 0.533h-2.843c0.708 1.189 0.9 2.597 0.523 3.921-0.401 1.41-0.879 3.446-0.879 5.145-0.003 0.074-0.193 5.133 1.987 7.433 0.028 0.030 0.064 0.039 0.106 0.029 0.026-0.006 0.072-0.026 0.088-0.084 0.732-2.607 3.429-11.112 7.419-11.112z"></path>
        </symbol>
        <symbol id="icon-teeth-2" viewBox="0 0 32 32">
            <path d="M26.634 4.266h-21.267c-2.959 0-5.366 2.407-5.366 5.366v5.197c0 0.75 0.49 1.381 1.164 1.608-0.311 1.679-0.532 3.335-0.62 4.764-0.175 2.866 1.764 4.85 3.763 5.545 1.899 0.66 3.61 0.99 5.123 0.99 1.639 0 3.047-0.387 4.211-1.161 0.981-0.652 1.837-1.91 2.359-3.144 0.522 1.233 1.378 2.491 2.359 3.144 1.164 0.774 2.571 1.161 4.211 1.161 1.513 0 3.225-0.33 5.123-0.99 1.999-0.694 3.939-2.678 3.763-5.545-0.087-1.429-0.308-3.084-0.62-4.764 0.674-0.228 1.164-0.859 1.164-1.609v-5.197c0-2.959-2.407-5.366-5.366-5.366zM13.051 25.685c-1.945 1.294-4.769 1.311-8.393 0.052-1.619-0.563-3.189-2.164-3.049-4.472 0.094-1.533 0.357-3.387 0.723-5.235 0.054-0.271 0.11-0.541 0.167-0.809 0.018-0.085 0.037-0.17 0.055-0.255 0.055-0.249 0.111-0.494 0.168-0.737 0.033-0.137 0.066-0.272 0.1-0.408 0.047-0.191 0.094-0.383 0.142-0.569 0.086-0.33 0.174-0.657 0.266-0.973 0.543-1.879 2.13-2.681 5.307-2.681 4.108 0 4.914 0.101 5.933 3.315 0.093 0.293 0.174 0.597 0.25 0.904 0.026 0.106 0.052 0.214 0.076 0.324 0.043 0.189 0.082 0.381 0.12 0.573 0.030 0.156 0.062 0.308 0.090 0.47 0.003 0.015 0.004 0.030 0.007 0.045 0.046 0.27 0.089 0.549 0.128 0.841l0.035 0.261c0.222 1.767 0.276 3.53 0.288 4.906 0.011 1.111-1.022 3.521-2.415 4.448zM27.343 25.737c-3.625 1.26-6.449 1.242-8.393-0.052-1.393-0.926-2.426-3.337-2.416-4.448 0.012-1.377 0.066-3.139 0.288-4.906l0.035-0.261c0.039-0.291 0.082-0.57 0.128-0.841 0.003-0.015 0.004-0.030 0.007-0.045 0.028-0.163 0.060-0.315 0.090-0.47 0.038-0.192 0.077-0.384 0.12-0.573 0.025-0.109 0.050-0.218 0.076-0.324 0.076-0.307 0.157-0.611 0.25-0.904 1.019-3.213 1.825-3.315 5.933-3.315 3.177 0 4.764 0.802 5.307 2.681 0.091 0.316 0.179 0.643 0.266 0.973 0.049 0.186 0.095 0.378 0.143 0.571 0.034 0.135 0.067 0.269 0.099 0.406 0.057 0.242 0.113 0.486 0.167 0.734 0.019 0.087 0.038 0.173 0.057 0.261 0.058 0.267 0.114 0.535 0.167 0.806 0.366 1.848 0.629 3.702 0.723 5.236 0.142 2.308-1.428 3.909-3.047 4.471zM30.933 14.828c0 0.23-0.123 0.431-0.306 0.543-0.114-0.55-0.24-1.094-0.371-1.634-0.020-0.082-0.040-0.164-0.060-0.245-0.048-0.193-0.097-0.385-0.147-0.574-0.084-0.321-0.169-0.635-0.255-0.934-0.884-3.060-3.849-3.452-6.332-3.452-4.302 0-5.722 0.185-6.95 4.058-0.095 0.301-0.182 0.617-0.264 0.942-0.016 0.065-0.030 0.134-0.046 0.2-0.068 0.283-0.131 0.576-0.189 0.879-0.004 0.020-0.009 0.038-0.013 0.059-0.004-0.021-0.009-0.038-0.013-0.059-0.058-0.304-0.122-0.598-0.189-0.882-0.015-0.065-0.029-0.133-0.045-0.196-0.082-0.326-0.169-0.642-0.265-0.943-1.229-3.874-2.648-4.058-6.95-4.058-2.484 0-5.448 0.392-6.332 3.452-0.086 0.3-0.172 0.614-0.255 0.934-0.050 0.19-0.098 0.381-0.146 0.574-0.020 0.082-0.040 0.163-0.060 0.246-0.132 0.539-0.257 1.083-0.371 1.633-0.184-0.113-0.307-0.315-0.307-0.545v-5.197c0-2.371 1.929-4.3 4.3-4.3h21.268c2.371 0 4.3 1.929 4.3 4.3v5.197z"></path>
        </symbol>
        <symbol id="icon-toothbrush-1" viewBox="0 0 32 32">
            <path d="M21.606 6.819c-0.894 0.604-1.94 0.923-3.025 0.923s-2.131-0.319-3.025-0.922l-0.577 0.856c1.065 0.719 2.311 1.099 3.602 1.099s2.537-0.38 3.603-1.099l-0.578-0.856z"></path>
            <path d="M6.194 0.516h-3.097v-0.516h-3.097v9.916l2.065 4.645v15.891c0 0.854 0.695 1.548 1.548 1.548s1.548-0.695 1.548-1.548v-16.109l-2.016-4.536h3.048v-9.29zM4.129 14.561v15.891c0 0.285-0.232 0.516-0.516 0.516s-0.516-0.231-0.516-0.516v-16.109l-2.065-4.645v-8.665h1.032v8.884l2.065 4.645zM5.161 8.774h-2.065v-1.032h2.065v1.032zM5.161 6.71h-2.065v-1.032h2.065v1.032zM5.161 4.645h-2.065v-1.032h2.065v1.032zM5.161 2.581h-2.065v-1.032h2.065v1.032z"></path>
            <path d="M30.405 10.381c-0.161-0.895-0.783-1.626-1.612-1.946-0.497-2.472-2.706-4.307-5.254-4.307-1.071 0-2.139 0.339-3.088 0.979-0.56 0.378-1.19 0.57-1.87 0.57s-1.31-0.191-1.87-0.57c-0.949-0.64-2.017-0.979-3.088-0.979-2.958 0-5.364 2.406-5.364 5.364 0 0.586 0.036 1.176 0.099 1.758-0.314 0.373-0.52 0.831-0.583 1.338-0.927 0.392-1.58 1.31-1.58 2.378s0.653 1.987 1.58 2.378c0.157 1.274 1.233 2.267 2.549 2.267 0.425 0 0.821-0.113 1.175-0.296 1.005 1.565 1.747 3.271 2.198 5.076l0.552 2.209c0.186 0.748 0.855 1.27 1.625 1.27 0.924 0 1.675-0.751 1.675-1.675v-6.583c0-0.569 0.463-1.032 1.032-1.032s1.032 0.463 1.032 1.032v6.583c0 0.924 0.751 1.675 1.675 1.675 0.77 0 1.439-0.522 1.625-1.269l0.552-2.209c0.5-2.001 1.349-3.876 2.523-5.571 0.619-0.895 1.145-1.854 1.574-2.853 0.102 0.012 0.202 0.031 0.308 0.031 1.068 0 1.987-0.653 2.378-1.58 0.989-0.152 1.751-1.001 1.751-2.033 0-0.977-0.683-1.791-1.595-2.006zM11.871 17.032c0 0.854-0.695 1.548-1.548 1.548s-1.548-0.695-1.548-1.548v-0.516c-0.854 0-1.548-0.695-1.548-1.548s0.695-1.548 1.548-1.548v-0.516c0-0.854 0.695-1.548 1.548-1.548s1.548 0.695 1.548 1.548v0.516c0.854 0 1.548 0.695 1.548 1.548s-0.695 1.548-1.548 1.548v0.516zM25.14 18.234c-1.245 1.798-2.145 3.786-2.676 5.909l-0.552 2.209c-0.071 0.287-0.328 0.487-0.623 0.487-0.355 0-0.643-0.289-0.643-0.643v-6.583c0-1.139-0.926-2.065-2.065-2.065s-2.065 0.926-2.065 2.065v6.583c0 0.355-0.289 0.643-0.643 0.643-0.296 0-0.552-0.2-0.624-0.487l-0.552-2.209c-0.488-1.952-1.292-3.796-2.39-5.482 0.303-0.369 0.503-0.818 0.564-1.315 0.927-0.392 1.58-1.31 1.58-2.379s-0.653-1.987-1.58-2.378c-0.157-1.274-1.233-2.267-2.549-2.267-0.353 0-0.688 0.072-0.995 0.2-0.023-0.343-0.038-0.687-0.038-1.030 0-2.389 1.943-4.332 4.332-4.332 0.865 0 1.733 0.277 2.511 0.803 0.734 0.495 1.557 0.746 2.447 0.746s1.714-0.251 2.448-0.746c0.778-0.525 1.646-0.803 2.51-0.803 1.931 0 3.621 1.305 4.153 3.115-1.185 0.083-2.149 0.959-2.356 2.105-0.911 0.214-1.594 1.029-1.594 2.006 0 1.031 0.762 1.88 1.751 2.033 0.218 0.518 0.607 0.94 1.088 1.221-0.396 0.907-0.876 1.779-1.441 2.594zM29.935 13.419h-0.516c0 0.854-0.695 1.548-1.548 1.548s-1.548-0.695-1.548-1.548h-0.516c-0.569 0-1.032-0.463-1.032-1.032s0.463-1.032 1.032-1.032c0.293 0 0.574 0.125 0.769 0.344l0.77-0.689c-0.258-0.288-0.593-0.486-0.957-0.593 0.185-0.648 0.776-1.127 1.483-1.127s1.297 0.477 1.482 1.125c-0.291 0.086-0.564 0.228-0.794 0.434l0.688 0.769c0.19-0.169 0.434-0.263 0.689-0.263 0.569 0 1.032 0.463 1.032 1.032s-0.463 1.032-1.032 1.032z"></path>
            <path d="M27.355 21.161c-0.854 0-1.548 0.695-1.548 1.548s0.695 1.548 1.548 1.548 1.548-0.695 1.548-1.548-0.695-1.548-1.548-1.548zM27.355 23.226c-0.284 0-0.516-0.231-0.516-0.516s0.232-0.516 0.516-0.516c0.284 0 0.516 0.231 0.516 0.516s-0.232 0.516-0.516 0.516z"></path>
            <path d="M10.323 25.29c-0.854 0-1.548 0.695-1.548 1.548s0.695 1.548 1.548 1.548 1.548-0.695 1.548-1.548-0.695-1.548-1.548-1.548zM10.323 27.355c-0.284 0-0.516-0.231-0.516-0.516s0.232-0.516 0.516-0.516 0.516 0.231 0.516 0.516c0 0.285-0.232 0.516-0.516 0.516z"></path>
            <path d="M30.452 0c-0.854 0-1.548 0.695-1.548 1.548s0.695 1.548 1.548 1.548 1.548-0.695 1.548-1.548-0.695-1.548-1.548-1.548zM30.452 2.065c-0.284 0-0.516-0.231-0.516-0.516s0.232-0.516 0.516-0.516c0.284 0 0.516 0.231 0.516 0.516s-0.232 0.516-0.516 0.516z"></path>
            <path d="M9.29 2.065h1.032v1.032h-1.032v-1.032z"></path>
            <path d="M19.097 0h1.032v1.032h-1.032v-1.032z"></path>
            <path d="M8.258 14.452h1.032v1.032h-1.032v-1.032z"></path>
            <path d="M11.355 14.452h1.032v1.032h-1.032v-1.032z"></path>
            <path d="M30.968 18.065h1.032v1.032h-1.032v-1.032z"></path>
            <path d="M7.742 21.161h1.032v1.032h-1.032v-1.032z"></path>
            <path d="M27.355 12.903h1.032v1.032h-1.032v-1.032z"></path>
        </symbol>
        <symbol id="icon-dental-9" viewBox="0 0 32 32">
            <path d="M31.612 19.221l-5.173-1.478c-0.758-0.217-1.568-0.163-2.291 0.152 0.181-0.582 0.347-1.173 0.477-1.782 0.062-0.288-0.121-0.572-0.409-0.633-0.036-0.008-0.073-0.012-0.11-0.012h-1.823l-0.764-3.055c-0.178-0.712-0.818-1.211-1.552-1.211h-7.933c-0.734-0-1.374 0.499-1.552 1.212l-0.764 3.055h-1.823c-0.295-0-0.533 0.239-0.533 0.533 0 0.038 0.004 0.075 0.012 0.112 0.13 0.608 0.296 1.201 0.48 1.783-0.724-0.315-1.534-0.369-2.293-0.153l-5.173 1.478c-0.228 0.066-0.385 0.275-0.385 0.513v11.733c0 0.295 0.239 0.533 0.533 0.533h30.932c0.295 0 0.533-0.239 0.533-0.533v-11.733c0-0.238-0.158-0.448-0.387-0.513zM10.134 16.534c0.245-0 0.458-0.167 0.517-0.404l0.864-3.458c0.059-0.238 0.273-0.404 0.518-0.404h7.933c0.245-0 0.458 0.166 0.518 0.404l0.699 2.796h-9.45v1.067h11.7c-0.169 0.681-0.377 1.351-0.623 2.008l-0.377 1.004c-0.019 0.051-0.030 0.105-0.033 0.16l-0.441 7.928c-0.039 0.683-0.623 1.206-1.307 1.167-0.047-0.003-0.093-0.008-0.139-0.016-0.544-0.112-0.956-0.559-1.024-1.11l-1.125-7.505c-0.099-0.648-0.458-1.228-0.996-1.605-0.4-0.282-0.878-0.432-1.367-0.431-0.167 0.001-0.334 0.019-0.498 0.053-0.994 0.226-1.743 1.045-1.88 2.055l-1.126 7.504c-0.098 0.658-0.7 1.121-1.361 1.047-0.622-0.096-1.086-0.623-1.103-1.252l-0.434-7.837c-0.003-0.055-0.014-0.109-0.033-0.16l-0.377-1.003c-0.246-0.657-0.454-1.327-0.624-2.007h1.567zM30.932 30.933h-29.865v-10.797l4.786-1.367c1.049-0.298 2.164 0.169 2.688 1.125l0.427 7.706c0.019 1.26 1.048 2.27 2.308 2.267 1.141 0.001 2.11-0.834 2.278-1.963l1.126-7.506c0.069-0.568 0.483-1.034 1.039-1.168 0.716-0.154 1.422 0.301 1.576 1.017 0.006 0.027 0.011 0.054 0.015 0.082l1.125 7.503c0.14 1.009 0.909 1.815 1.909 2.005 1.255 0.21 2.443-0.637 2.653-1.893 0.014-0.083 0.023-0.168 0.028-0.252l0.434-7.797c0.524-0.956 1.639-1.423 2.688-1.125l4.786 1.367v10.797z"></path>
            <path d="M20.55 0.003c-0.611 0-1.215 0.124-1.777 0.365-1.771 0.755-3.773 0.755-5.543 0-2.292-0.983-4.947 0.077-5.93 2.369-0.242 0.563-0.366 1.169-0.366 1.781 0.002 1.388 0.149 2.772 0.441 4.129 0.052 0.245 0.269 0.421 0.519 0.422h16.212c0.252 0 0.469-0.176 0.522-0.422 0.291-1.357 0.437-2.741 0.438-4.129-0-2.494-2.022-4.515-4.516-4.515zM23.668 8.001h-15.336c-0.219-1.148-0.331-2.315-0.332-3.484 0.001-1.906 1.546-3.45 3.452-3.449 0.466 0 0.928 0.095 1.356 0.278 2.039 0.87 4.344 0.87 6.383 0 1.752-0.75 3.78 0.062 4.53 1.814 0.183 0.429 0.278 0.89 0.278 1.356-0.001 1.169-0.112 2.336-0.332 3.484z"></path>
            <path d="M10.934 2.205c-1.124 0.596-1.839 1.753-1.867 3.025v0.637h1.067v-0.64c0.032-0.889 0.542-1.692 1.333-2.1l-0.533-0.923z"></path>
        </symbol>
        <symbol id="icon-tooth-10" viewBox="0 0 32 32">
            <path d="M26.424 0.424c-0.317-0.106-0.644-0.194-0.972-0.26-0.339-0.068-0.668 0.15-0.737 0.489s0.15 0.668 0.488 0.737c0.277 0.056 0.554 0.13 0.822 0.22 0.066 0.022 0.133 0.033 0.199 0.033 0.261 0 0.505-0.165 0.592-0.426 0.11-0.327-0.067-0.682-0.394-0.791z"></path>
            <path d="M20.513 0.845c-0.288 0.166-0.573 0.36-0.845 0.576-0.27 0.215-0.315 0.608-0.1 0.878 0.123 0.155 0.306 0.236 0.489 0.236 0.136 0 0.274-0.045 0.389-0.136 0.223-0.178 0.455-0.336 0.689-0.47 0.299-0.172 0.403-0.554 0.231-0.853s-0.554-0.403-0.853-0.231z"></path>
            <path d="M23.451 0.009c-0.346 0.016-0.687 0.057-1.012 0.12-0.339 0.066-0.56 0.394-0.494 0.733 0.058 0.298 0.32 0.505 0.613 0.505 0.040 0 0.080-0.004 0.12-0.012 0.266-0.052 0.546-0.085 0.832-0.099 0.345-0.016 0.611-0.309 0.595-0.654s-0.308-0.612-0.654-0.595z"></path>
            <path d="M30.517 6.375c0.074 0.273 0.131 0.553 0.171 0.834 0.044 0.312 0.312 0.538 0.618 0.538 0.029 0 0.058-0.002 0.088-0.006 0.342-0.048 0.58-0.364 0.532-0.706-0.047-0.331-0.114-0.663-0.201-0.985-0.090-0.333-0.433-0.531-0.766-0.441s-0.53 0.433-0.441 0.766z"></path>
            <path d="M31.394 8.352c-0.346-0.016-0.637 0.252-0.652 0.597-0.014 0.311-0.040 0.591-0.082 0.856-0.053 0.341 0.181 0.661 0.522 0.713 0.032 0.005 0.065 0.008 0.097 0.008 0.303 0 0.569-0.221 0.617-0.529 0.048-0.311 0.079-0.635 0.095-0.993 0.015-0.345-0.252-0.637-0.597-0.652z"></path>
            <path d="M31.006 11.105c-0.318-0.134-0.685 0.016-0.818 0.334-0.107 0.254-0.233 0.52-0.375 0.79-0.161 0.306-0.043 0.683 0.263 0.844 0.093 0.049 0.192 0.072 0.29 0.072 0.225 0 0.442-0.122 0.554-0.334 0.159-0.303 0.301-0.601 0.421-0.888 0.134-0.318-0.016-0.685-0.334-0.818z"></path>
            <path d="M29.045 1.885c-0.257-0.214-0.53-0.413-0.811-0.593-0.291-0.186-0.677-0.102-0.863 0.189s-0.102 0.677 0.189 0.863c0.238 0.153 0.469 0.322 0.688 0.503 0.117 0.097 0.258 0.144 0.399 0.144 0.18 0 0.358-0.077 0.481-0.226 0.22-0.266 0.184-0.66-0.082-0.88z"></path>
            <path d="M30.42 5.121c0.103 0 0.208-0.026 0.305-0.080 0.301-0.169 0.408-0.55 0.24-0.851-0.163-0.291-0.346-0.576-0.544-0.845-0.204-0.278-0.596-0.338-0.874-0.134s-0.338 0.595-0.134 0.874c0.168 0.229 0.323 0.47 0.461 0.716 0.115 0.205 0.327 0.32 0.546 0.32z"></path>
            <path d="M29.753 13.592c-0.098-0.066-0.248-0.106-0.313-0.12-0.202-0.442-0.141-1.132-0.042-1.592 0.053-0.249 0.141-0.488 0.016-0.731-0.134-0.262-0.375-0.315-0.643-0.361-0.853-0.146-1.643-0.599-2.207-1.255-0.299-0.348-0.533-0.751-0.687-1.183-0.171-0.478-0.166-0.928-0.218-1.42-0.029-0.268-0.233-0.493-0.497-0.546-0.128-0.026-0.261-0.003-0.391-0.016-0.432-0.042-0.834-0.273-1.090-0.623-0.12-0.164-0.181-0.371-0.351-0.497-0.201-0.149-0.418-0.112-0.649-0.085-0.281 0.032-0.567 0.032-0.848 0-0.503-0.058-0.992-0.219-1.431-0.469s-0.827-0.59-1.133-0.993c-0.015-0.020-0.036-0.050-0.039-0.070 0.012-0.024 0.038-0.054 0.051-0.072 0.122-0.168 0.099-0.377 0.071-0.484-0.058-0.224-0.242-0.401-0.467-0.451-0.223-0.050-0.458 0.028-0.609 0.199-0.206 0.235-0.392 0.491-0.579 0.741-0.193 0.256-0.382 0.514-0.58 0.765-0.174 0.221-0.353 0.441-0.561 0.631-0.137 0.126-0.305 0.262-0.497 0.286-0.179 0.022-0.347-0.080-0.482-0.186-0.205-0.16-0.378-0.361-0.543-0.562-0.196-0.239-0.38-0.487-0.565-0.734-0.431-0.575-0.868-1.146-1.371-1.662-0.607-0.623-1.31-1.161-2.105-1.524-0.828-0.378-1.736-0.56-2.643-0.578-3.569-0.070-6.86 2.285-7.952 5.684-0.322 1.002-0.417 2.055-0.382 3.103 0.016 0.484 0.058 0.969 0.147 1.445 0.086 0.456 0.214 0.904 0.375 1.339 0.323 0.871 0.777 1.689 1.278 2.468 0.353 0.55 0.73 1.085 1.128 1.603 0.569 0.739 1.107 1.459 1.492 2.315 0.382 0.848 0.651 1.742 0.891 2.639 0.51 1.905 0.844 3.85 1.27 5.774 0.234 1.058 0.491 2.119 0.883 3.131 0.222 0.573 0.492 1.135 0.893 1.606 0.245 0.288 0.54 0.538 0.885 0.698 0.369 0.171 0.781 0.224 1.183 0.174 0.878-0.11 1.54-0.735 2.006-1.448 0.634-0.97 0.999-2.106 1.33-3.208 0.404-1.348 0.715-2.727 1.208-4.047 0.131-0.352 0.284-0.7 0.489-1.016 0.099-0.153 0.219-0.321 0.384-0.409 0.121-0.064 0.241-0.043 0.351 0.034 0.167 0.117 0.287 0.3 0.389 0.472 0.141 0.236 0.254 0.489 0.357 0.744 0.213 0.529 0.381 1.076 0.541 1.623 0.352 1.206 0.654 2.427 1.063 3.615 0.187 0.543 0.397 1.081 0.659 1.592 0.234 0.456 0.512 0.897 0.871 1.265 0.285 0.293 0.624 0.535 1.011 0.672 0.375 0.132 0.791 0.166 1.182 0.090 0.759-0.149 1.328-0.72 1.72-1.356 0.352-0.571 0.59-1.214 0.793-1.85 0.36-1.126 0.606-2.287 0.846-3.443 0.337-1.62 0.643-3.248 1.079-4.845 0.412-1.511 0.935-3.006 1.912-4.251 0.354-0.451 0.699-0.91 1.029-1.379 0.087-0.124 0.176-0.248 0.259-0.376 0.060-0.091 0.098-0.194 0.106-0.304 0.016-0.221-0.089-0.44-0.273-0.564zM28.363 14.518c-0.082 0.098-0.52 0.681-0.847 1.093-0.491 0.618-0.863 1.324-1.171 2.048-0.346 0.816-0.613 1.664-0.844 2.519-0.503 1.862-0.837 3.763-1.246 5.647-0.191 0.879-0.394 1.759-0.671 2.616-0.114 0.354-0.242 0.706-0.398 1.044-0.125 0.269-0.268 0.534-0.454 0.767-0.143 0.178-0.317 0.343-0.53 0.432-0.202 0.084-0.427 0.085-0.634 0.020-0.534-0.169-0.888-0.707-1.144-1.171-0.375-0.681-0.633-1.426-0.867-2.165-0.261-0.824-0.483-1.66-0.717-2.491-0.23-0.815-0.464-1.636-0.798-2.416-0.245-0.573-0.556-1.179-1.062-1.564-0.431-0.328-1.010-0.426-1.521-0.236-0.551 0.205-0.926 0.706-1.199 1.204-0.524 0.956-0.81 2.034-1.103 3.077-0.305 1.085-0.586 2.182-0.973 3.242-0.211 0.579-0.45 1.161-0.79 1.677-0.155 0.235-0.334 0.462-0.559 0.635-0.188 0.144-0.41 0.245-0.65 0.255-0.213 0.009-0.415-0.063-0.586-0.187-0.206-0.15-0.366-0.358-0.501-0.572-0.173-0.277-0.31-0.576-0.43-0.879-0.311-0.784-0.522-1.606-0.715-2.425-0.478-2.027-0.817-4.085-1.334-6.103-0.252-0.982-0.545-1.957-0.936-2.893-0.391-0.935-0.922-1.742-1.542-2.539-0.388-0.498-0.758-1.009-1.107-1.535-0.519-0.782-0.996-1.604-1.327-2.484-0.167-0.443-0.291-0.901-0.363-1.369-0.075-0.488-0.087-0.983-0.085-1.476 0.006-1.855 0.688-3.635 1.995-4.963 1.282-1.303 3.060-2.063 4.89-2.074 0.916-0.005 1.828 0.188 2.635 0.629 0.787 0.43 1.434 1.057 2.001 1.744 0.144 0.175 0.284 0.353 0.421 0.533 0.229 0.3 0.451 0.606 0.683 0.904 0.257 0.329 0.526 0.654 0.846 0.924 0.277 0.233 0.597 0.418 0.956 0.486 0.363 0.068 0.74 0.017 1.073-0.139 0.331-0.156 0.613-0.401 0.863-0.665 0.297-0.314 0.558-0.66 0.817-1.006 0.715 0.846 1.709 1.44 2.793 1.669 0.271 0.057 0.547 0.092 0.824 0.103 0.145 0.006 0.503-0.005 0.536-0.007 0.045-0.003 0.046 0.007 0.073 0.045 0.041 0.057 0.085 0.113 0.131 0.167 0.355 0.418 0.833 0.728 1.36 0.879 0.062 0.018 0.272 0.055 0.281 0.065 0.012 0.014 0.046 0.356 0.071 0.479 0.049 0.249 0.117 0.493 0.204 0.731 0.17 0.469 0.411 0.912 0.712 1.31 0.6 0.795 1.435 1.403 2.378 1.724 0.074 0.025 0.148 0.049 0.224 0.070 0.055 0.016 0.104 0.010 0.095 0.076-0.022 0.174-0.035 0.35-0.038 0.525-0.006 0.326 0.019 0.652 0.075 0.973 0.046 0.259 0.107 0.523 0.199 0.769 0.018 0.049 0.055 0.099 0.065 0.15s-0.024 0.092-0.054 0.128z"></path>
        </symbol>
        <symbol id="icon-gum" viewBox="0 0 32 32">
            <path d="M5.471 11.47c-0.001-0.001-0.001-0.001-0.002-0.002-0.214-0.271-0.607-0.317-0.878-0.103s-0.317 0.607-0.103 0.878c0.002 0.002 0.003 0.004 0.005 0.006 0.123 0.155 0.305 0.236 0.489 0.236 0.137 0 0.274-0.045 0.389-0.136 0.27-0.215 0.314-0.608 0.099-0.878z"></path>
            <path d="M7.403 3.856c-0.128-0.32-0.492-0.476-0.813-0.348-2.678 1.073-4.083 4.063-3.197 6.806 0.085 0.265 0.331 0.433 0.595 0.433 0.064 0 0.128-0.010 0.192-0.030 0.329-0.106 0.509-0.458 0.403-0.787-0.685-2.121 0.402-4.432 2.473-5.262 0.32-0.128 0.476-0.492 0.348-0.813z"></path>
            <path d="M29.668 2.464c-1.501-1.536-3.509-2.41-5.653-2.463-0.168-0.005-0.331 0.060-0.452 0.177s-0.189 0.279-0.189 0.447c-0.001 4.065-3.31 7.373-7.375 7.373s-7.374-3.307-7.375-7.373c0-0.168-0.068-0.33-0.188-0.447s-0.283-0.181-0.452-0.177c-2.144 0.052-4.152 0.927-5.653 2.463-1.504 1.538-2.332 3.571-2.332 5.722 0 2.213 0.252 4.096 3.511 8.201 1.385 1.744 2.069 5.090 2.673 8.042 0.387 1.89 0.752 3.676 1.274 5.028 0.243 0.629 0.981 2.542 2.677 2.542 1.099 0 1.985-0.711 2.708-2.174 0.562-1.137 0.964-2.585 1.354-3.985 0.32-1.152 0.623-2.239 0.978-3.026 0.293-0.646 0.586-1.002 0.826-1.002s0.534 0.356 0.826 1.002c0.356 0.786 0.658 1.874 0.978 3.026 0.389 1.4 0.792 2.849 1.354 3.985 0.723 1.463 1.609 2.175 2.708 2.175 1.696 0 2.434-1.913 2.677-2.542 0.522-1.352 0.887-3.137 1.274-5.028 0.604-2.952 1.288-6.298 2.673-8.042 3.259-4.105 3.511-5.988 3.511-8.201 0-2.152-0.828-4.184-2.332-5.722zM27.511 15.61c-1.571 1.978-2.256 5.329-2.918 8.569-0.66 3.23-1.344 6.57-2.726 6.57-1.399 0-2.207-2.908-2.857-5.244-0.737-2.652-1.374-4.943-3.009-4.943s-2.272 2.291-3.009 4.943c-0.65 2.337-1.458 5.244-2.857 5.244-1.383 0-2.066-3.34-2.726-6.57-0.663-3.24-1.348-6.591-2.918-8.569-3.24-4.081-3.24-5.704-3.24-7.424 0-3.526 2.707-6.497 6.151-6.893 0.343 4.444 4.069 7.955 8.599 7.955s8.256-3.511 8.599-7.955c3.443 0.396 6.151 3.367 6.151 6.893 0 1.719 0 3.343-3.239 7.424z"></path>
            <path d="M22.423 0.243c-0.13-0.12-0.305-0.18-0.482-0.163-2.052 0.191-3.22 0.673-4.159 1.061-0.677 0.28-1.167 0.482-1.782 0.482s-1.105-0.202-1.782-0.482c-0.938-0.388-2.107-0.87-4.159-1.061-0.176-0.017-0.352 0.043-0.482 0.163s-0.203 0.29-0.201 0.467c0.023 1.751 0.722 3.394 1.968 4.626 1.248 1.233 2.901 1.912 4.656 1.912s3.408-0.679 4.656-1.912c1.247-1.232 1.946-2.875 1.968-4.626 0.002-0.177-0.071-0.347-0.201-0.467zM16 5.999c-2.682 0-4.931-2-5.316-4.586 1.421 0.208 2.317 0.578 3.057 0.883 0.749 0.309 1.396 0.577 2.26 0.577s1.51-0.267 2.26-0.577c0.74-0.306 1.636-0.676 3.057-0.883-0.385 2.586-2.634 4.586-5.316 4.586z"></path>
        </symbol>
    </defs>
</svg>
