<svg aria-hidden="true" style="position: absolute; width: 0; height: 0; overflow: hidden;" version="1.1" xmlns="http://www.w3.org/2000/svg" xmlns:xlink="http://www.w3.org/1999/xlink">
    <defs>
        <symbol id="icon-telephone" viewBox="0 0 32 32">
            <path d="M31.931 24.794c-0.090-0.273-0.666-0.674-1.727-1.204-0.287-0.167-0.697-0.394-1.227-0.682s-1.012-0.553-1.443-0.796c-0.432-0.242-0.837-0.477-1.216-0.704-0.061-0.045-0.25-0.178-0.568-0.398s-0.587-0.383-0.807-0.489c-0.22-0.106-0.436-0.159-0.648-0.159-0.303 0-0.681 0.216-1.136 0.648s-0.871 0.901-1.25 1.409c-0.379 0.508-0.78 0.977-1.204 1.409s-0.773 0.648-1.046 0.648c-0.137 0-0.307-0.038-0.512-0.113s-0.36-0.141-0.466-0.193c-0.106-0.053-0.287-0.159-0.545-0.319s-0.402-0.246-0.432-0.262c-2.076-1.152-3.856-2.47-5.341-3.954s-2.803-3.265-3.954-5.341c-0.015-0.030-0.102-0.174-0.261-0.432s-0.265-0.439-0.318-0.546c-0.053-0.106-0.117-0.261-0.193-0.466s-0.114-0.375-0.114-0.511c0-0.273 0.216-0.621 0.648-1.046s0.902-0.826 1.409-1.204c0.508-0.379 0.977-0.795 1.409-1.25s0.648-0.833 0.648-1.136c0-0.212-0.053-0.428-0.159-0.648s-0.269-0.489-0.489-0.807c-0.22-0.318-0.352-0.507-0.398-0.568-0.227-0.378-0.462-0.784-0.704-1.216s-0.508-0.913-0.796-1.443c-0.288-0.53-0.515-0.939-0.682-1.227-0.53-1.060-0.931-1.636-1.204-1.727-0.106-0.045-0.265-0.068-0.477-0.068-0.409 0-0.943 0.076-1.602 0.227s-1.178 0.31-1.557 0.477c-0.758 0.318-1.561 1.242-2.409 2.772-0.773 1.424-1.159 2.833-1.159 4.227 0 0.409 0.026 0.806 0.080 1.193s0.148 0.822 0.284 1.307c0.136 0.485 0.246 0.845 0.329 1.079s0.238 0.655 0.466 1.261c0.227 0.606 0.364 0.977 0.409 1.113 0.53 1.485 1.159 2.811 1.886 3.977 1.196 1.939 2.829 3.943 4.897 6.012s4.072 3.701 6.011 4.898c1.167 0.727 2.493 1.356 3.977 1.886 0.136 0.045 0.507 0.181 1.113 0.409s1.027 0.383 1.261 0.466c0.235 0.083 0.595 0.193 1.079 0.33 0.485 0.137 0.921 0.231 1.307 0.285 0.387 0.052 0.784 0.079 1.193 0.079 1.394 0 2.803-0.387 4.227-1.159 1.53-0.848 2.454-1.651 2.772-2.41 0.167-0.378 0.326-0.897 0.477-1.557s0.227-1.193 0.227-1.602c0-0.213-0.022-0.372-0.068-0.479z"></path>
        </symbol>
        <symbol id="icon-instagram" viewBox="0 0 32 32">
            <path d="M4.688 32h22.625c2.585 0 4.688-2.103 4.688-4.688v-22.625c0-2.585-2.103-4.688-4.688-4.688h-22.625c-2.585 0-4.688 2.103-4.688 4.688v22.625c0 2.585 2.103 4.688 4.688 4.688zM1.875 4.688c0-1.551 1.262-2.813 2.813-2.813h22.625c1.551 0 2.813 1.262 2.813 2.813v22.625c0 1.551-1.262 2.813-2.813 2.813h-22.625c-1.551 0-2.813-1.262-2.813-2.813z"></path>
            <path d="M16 24.438c4.652 0 8.438-3.785 8.438-8.438s-3.785-8.438-8.438-8.438-8.438 3.785-8.438 8.438 3.785 8.438 8.438 8.438zM16 9.438c3.619 0 6.563 2.944 6.563 6.563s-2.944 6.563-6.563 6.563-6.563-2.944-6.563-6.563 2.944-6.563 6.563-6.563z"></path>
            <path d="M25.375 9.438c1.551 0 2.813-1.262 2.813-2.813s-1.262-2.813-2.813-2.813-2.813 1.262-2.813 2.813 1.262 2.813 2.813 2.813zM25.375 5.688c0.517 0 0.938 0.421 0.938 0.938s-0.421 0.938-0.938 0.938-0.938-0.421-0.938-0.938 0.421-0.938 0.938-0.938z"></path>
        </symbol>
        <symbol id="icon-facebook" viewBox="0 0 32 32">
            <path d="M4.688 32h10.438v-11.375h-3.75v-3.75h3.75v-4.688c0-2.585 2.103-4.688 4.688-4.688h4.688v3.75h-3.75c-1.034 0-1.875 0.841-1.875 1.875v3.75h5.456l-0.625 3.75h-4.831v11.375h8.438c2.585 0 4.688-2.103 4.688-4.688v-22.625c0-2.585-2.103-4.688-4.688-4.688h-22.625c-2.585 0-4.688 2.103-4.688 4.688v22.625c0 2.585 2.103 4.688 4.688 4.688zM1.875 4.688c0-1.551 1.262-2.813 2.813-2.813h22.625c1.551 0 2.813 1.262 2.813 2.813v22.625c0 1.551-1.262 2.813-2.813 2.813h-6.563v-7.625h4.544l1.25-7.5h-5.794v-1.875h5.625v-7.5h-6.563c-3.619 0-6.563 2.944-6.563 6.563v2.813h-3.75v7.5h3.75v7.625h-8.563c-1.551 0-2.813-1.262-2.813-2.813z"></path>
        </symbol>
        <symbol id="icon-youtube" viewBox="0 0 32 32">
            <path d="M4.688 28.188h22.625c2.585 0 4.688-2.103 4.688-4.688v-15c0-2.585-2.103-4.688-4.688-4.688h-22.625c-2.585 0-4.688 2.103-4.688 4.688v15c0 2.585 2.103 4.688 4.688 4.688zM1.875 8.5c0-1.551 1.262-2.813 2.813-2.813h22.625c1.551 0 2.813 1.262 2.813 2.813v15c0 1.551-1.262 2.813-2.813 2.813h-22.625c-1.551 0-2.813-1.262-2.813-2.813z"></path>
            <path d="M11.313 9.719v12.744l11.281-6.476zM13.188 12.906l5.594 3.108-5.594 3.211z"></path>
        </symbol>
        <symbol id="icon-mail" viewBox="0 0 32 32">
            <path d="M26.364 9.346l-10.363 9.132-10.365-9.132c-0.413-0.364-1.042-0.324-1.405 0.089s-0.324 1.042 0.089 1.405l11.023 9.712c0.188 0.166 0.423 0.248 0.658 0.248s0.47-0.083 0.658-0.249l11.021-9.712c0.412-0.363 0.452-0.993 0.089-1.405s-0.993-0.452-1.405-0.089z"></path>
            <path d="M29.013 5.115h-26.026c-1.647 0-2.987 1.34-2.987 2.987v15.797c0 1.647 1.34 2.987 2.987 2.987h26.026c1.647 0 2.987-1.34 2.987-2.987v-15.797c0-1.647-1.34-2.987-2.987-2.987zM30.009 23.898c0 0.549-0.447 0.996-0.996 0.996h-26.026c-0.549 0-0.996-0.447-0.996-0.996v-15.797c0-0.549 0.447-0.996 0.996-0.996h26.026c0.549 0 0.996 0.447 0.996 0.996v15.797z"></path>
        </symbol>
        <symbol id="icon-clock" viewBox="0 0 32 32">
            <path d="M16 0c-8.822 0-16 7.178-16 16s7.178 16 16 16 16-7.178 16-16-7.178-16-16-16zM16 30c-7.72 0-14-6.28-14-14s6.28-14 14-14 14 6.28 14 14-6.28 14-14 14z"></path>
            <path d="M17 6h-2v10.414l6.293 6.293 1.414-1.414-5.707-5.707z"></path>
        </symbol>
        <symbol id="icon-close" viewBox="0 0 32 32">
            <path d="M1.655 32c-0.421 0-0.843-0.16-1.163-0.483-0.643-0.643-0.643-1.686 0-2.328l28.704-28.704c0.643-0.643 1.686-0.643 2.328 0s0.643 1.685 0 2.328l-28.705 28.705c-0.323 0.323-0.744 0.483-1.165 0.483z"></path>
            <path d="M30.362 32c-0.421 0-0.843-0.16-1.163-0.483l-28.707-28.707c-0.643-0.643-0.643-1.686 0-2.328s1.685-0.643 2.328 0l28.705 28.707c0.643 0.643 0.643 1.686 0 2.328-0.323 0.323-0.744 0.483-1.163 0.483z"></path>
        </symbol>
        <symbol id="icon-menu" viewBox="0 0 32 32">
            <path d="M0 23.111h32v3.556h-32v-3.556z"></path>
            <path d="M0 14.222h32v3.556h-32v-3.556z"></path>
            <path d="M0 5.333h32v3.556h-32v-3.556z"></path>
        </symbol>
        <symbol id="icon-calendar" viewBox="0 0 32 32">
            <path d="M28.682 4.168h-2.009v-1.592c0-0.458-0.375-0.834-0.834-0.834s-0.834 0.375-0.834 0.834v1.592h-8.169v-1.592c0-0.458-0.375-0.834-0.834-0.834s-0.834 0.375-0.834 0.834v1.592h-8.252v-1.592c0-0.458-0.375-0.834-0.834-0.834s-0.834 0.375-0.834 0.834v1.592h-1.925c-1.834 0-3.326 1.542-3.326 3.376v19.38c0 1.842 1.484 3.334 3.326 3.334h25.348c1.842 0 3.326-1.492 3.326-3.326v-19.388c0.008-1.834-1.484-3.376-3.318-3.376zM30.341 26.924c0 0.917-0.734 1.659-1.65 1.667h-25.365c-0.917 0-1.659-0.742-1.659-1.659v-19.388c0-0.925 0.742-1.709 1.659-1.709h1.925v1.209c0 0.458 0.375 0.834 0.834 0.834s0.834-0.375 0.834-0.834v-1.209h8.252v1.209c0 0.458 0.375 0.834 0.834 0.834s0.834-0.375 0.834-0.834v-1.209h8.169v1.209c0 0.458 0.375 0.834 0.834 0.834s0.834-0.375 0.834-0.834v-1.209h2.009c0.925 0 1.659 0.792 1.659 1.709v19.38z"></path>
            <path d="M13.812 11.253h-1.459c-0.458 0-0.834 0.375-0.834 0.834s0.375 0.834 0.834 0.834h1.459c0.458 0 0.834-0.375 0.834-0.834s-0.375-0.834-0.834-0.834z"></path>
            <path d="M19.613 11.253h-1.459c-0.458 0-0.834 0.375-0.834 0.834s0.375 0.834 0.834 0.834h1.459c0.458 0 0.834-0.375 0.834-0.834s-0.367-0.834-0.834-0.834z"></path>
            <path d="M25.465 11.253h-1.459c-0.458 0-0.834 0.375-0.834 0.834s0.375 0.834 0.834 0.834h1.459c0.458 0 0.834-0.375 0.834-0.834s-0.375-0.834-0.834-0.834z"></path>
            <path d="M13.812 17.004h-1.459c-0.458 0-0.834 0.375-0.834 0.834s0.375 0.834 0.834 0.834h1.459c0.458 0 0.834-0.375 0.834-0.834s-0.375-0.834-0.834-0.834z"></path>
            <path d="M7.969 17.004h-1.467c-0.458 0-0.834 0.375-0.834 0.834s0.375 0.834 0.834 0.834h1.459c0.458 0 0.834-0.375 0.834-0.834s-0.367-0.834-0.825-0.834z"></path>
            <path d="M19.613 17.004h-1.459c-0.458 0-0.834 0.375-0.834 0.834s0.375 0.834 0.834 0.834h1.459c0.458 0 0.834-0.375 0.834-0.834s-0.367-0.834-0.834-0.834z"></path>
            <path d="M25.465 17.004h-1.459c-0.458 0-0.834 0.375-0.834 0.834s0.375 0.834 0.834 0.834h1.459c0.458 0 0.834-0.375 0.834-0.834s-0.375-0.834-0.834-0.834z"></path>
            <path d="M13.812 22.673h-1.459c-0.458 0-0.834 0.375-0.834 0.834s0.375 0.834 0.834 0.834h1.459c0.458 0 0.834-0.375 0.834-0.834s-0.375-0.834-0.834-0.834z"></path>
            <path d="M7.969 22.673h-1.467c-0.458 0-0.834 0.375-0.834 0.834s0.375 0.834 0.834 0.834h1.459c0.458 0 0.834-0.375 0.834-0.834s-0.367-0.834-0.825-0.834z"></path>
            <path d="M19.613 22.673h-1.459c-0.458 0-0.834 0.375-0.834 0.834s0.375 0.834 0.834 0.834h1.459c0.458 0 0.834-0.375 0.834-0.834s-0.367-0.834-0.834-0.834z"></path>
        </symbol>
        <symbol id="icon-tent" viewBox="0 0 32 32">
            <path d="M31.611 28.66h-3.854v-0.039l-11.251-22.462 1.518-3.037c0.078-0.195 0.039-0.428-0.156-0.506s-0.428 0-0.506 0.156l-1.285 2.53-1.285-2.53c-0.078-0.195-0.311-0.272-0.506-0.156-0.195 0.078-0.273 0.311-0.156 0.506l1.479 2.959-11.29 22.54v0.039h-3.932c-0.234 0-0.389 0.156-0.389 0.389s0.156 0.389 0.389 0.389h31.221c0.234 0 0.389-0.156 0.389-0.389 0-0.195-0.156-0.389-0.389-0.389zM11.484 28.66l4.555-9.032 4.555 9.032h-9.11zM21.489 28.66l-5.061-10.044c-0.117-0.273-0.545-0.273-0.701 0l-5.1 10.044h-5.45l10.861-21.723 10.861 21.723h-5.411z"></path>
        </symbol>
        <symbol id="icon-exclamation-point" viewBox="0 0 32 32">
            <path d="M21.051 0h-10.102c-3.936 0-7.138 3.202-7.138 7.138v13.41c0 3.936 3.202 7.138 7.138 7.138h0.371l9.718 4.314v-4.314h0.014c3.936 0 7.138-3.202 7.138-7.138v-13.41c0-3.936-3.202-7.138-7.138-7.138zM26.311 20.548c0 2.9-2.359 5.26-5.26 5.26h-1.892v3.303l-7.441-3.303h-0.769c-2.9 0-5.26-2.359-5.26-5.26v-13.41c0-2.9 2.359-5.26 5.26-5.26h10.102c2.9 0 5.26 2.359 5.26 5.26z"></path>
            <path d="M16 17.561c-0.683 0-1.237 0.554-1.237 1.237s0.554 1.237 1.237 1.237c0.683 0 1.237-0.554 1.237-1.237s-0.554-1.237-1.237-1.237z"></path>
            <path d="M15.069 7.579h1.878v8.78h-1.878z"></path>
        </symbol>
        <symbol id="icon-info" viewBox="0 0 32 32">
            <path d="M17.333 8c0 0.736-0.597 1.333-1.333 1.333s-1.333-0.597-1.333-1.333 0.597-1.333 1.333-1.333 1.333 0.597 1.333 1.333z"></path>
            <path d="M16 25.333c-0.552 0-1-0.448-1-1v-10.333h-1.333c-0.552 0-1-0.448-1-1s0.448-1 1-1h2.333c0.552 0 1 0.448 1 1v11.333c0 0.552-0.448 1-1 1z"></path>
            <path d="M16 32c-8.823 0-16-7.177-16-16s7.177-16 16-16 16 7.177 16 16-7.177 16-16 16zM16 2c-7.72 0-14 6.28-14 14s6.28 14 14 14 14-6.28 14-14-6.28-14-14-14z"></path>
            <path d="M19 25.333h-6c-0.552 0-1-0.448-1-1s0.448-1 1-1h6c0.552 0 1 0.448 1 1s-0.448 1-1 1z"></path>
        </symbol>
        <symbol id="icon-pin" viewBox="0 0 32 32">
            <path d="M16 0c-6.518 0-11.821 5.303-11.821 11.821 0 2.146 0.962 4.454 1.003 4.551 0.311 0.738 0.924 1.884 1.366 2.555l8.105 12.281c0.332 0.503 0.823 0.792 1.347 0.792s1.015-0.289 1.347-0.791l8.106-12.281c0.443-0.672 1.056-1.818 1.366-2.555 0.040-0.097 1.002-2.405 1.002-4.551 0-6.518-5.303-11.821-11.821-11.821zM25.537 15.832c-0.277 0.661-0.848 1.727-1.245 2.329l-8.106 12.281c-0.16 0.243-0.211 0.243-0.371 0l-8.106-12.281c-0.397-0.602-0.968-1.669-1.245-2.33-0.012-0.028-0.894-2.153-0.894-4.011 0-5.751 4.679-10.43 10.43-10.43s10.43 4.679 10.43 10.43c0 1.861-0.884 3.991-0.894 4.011z"></path>
            <path d="M16 5.564c-3.451 0-6.258 2.808-6.258 6.258s2.807 6.258 6.258 6.258c3.451 0 6.258-2.808 6.258-6.258s-2.807-6.258-6.258-6.258zM16 16.689c-2.683 0-4.867-2.183-4.867-4.867s2.184-4.867 4.867-4.867 4.867 2.183 4.867 4.867-2.184 4.867-4.867 4.867z"></path>
        </symbol>
        <symbol id="icon-next" viewBox="0 0 32 32">
            <path d="M24.276 15.122l-14.801-14.76c-0.485-0.483-1.27-0.482-1.754 0.003s-0.482 1.27 0.003 1.754l13.92 13.881-13.92 13.881c-0.485 0.484-0.486 1.269-0.003 1.754 0.243 0.243 0.561 0.365 0.879 0.365s0.634-0.121 0.876-0.362l14.801-14.76c0.234-0.232 0.365-0.549 0.365-0.878s-0.131-0.645-0.365-0.878z"></path>
        </symbol>
        <symbol id="icon-right-arrow" viewBox="0 0 32 32">
            <path d="M18.689 6.276c-0.399-0.38-1.033-0.365-1.413 0.035s-0.365 1.033 0.035 1.414l7.671 7.276h-19.982c-0.552 0-1 0.448-1 1s0.448 1 1 1h19.95l-7.639 7.276c-0.4 0.381-0.416 1.014-0.035 1.414 0.197 0.206 0.46 0.31 0.724 0.31 0.248 0 0.496-0.091 0.689-0.276l8.725-8.31c0.378-0.378 0.586-0.88 0.586-1.414s-0.208-1.037-0.604-1.431z"></path>
        </symbol>
    </defs>
</svg>
