<?xml version="1.0" standalone="no"?>
<!DOCTYPE svg PUBLIC "-//W3C//DTD SVG 20010904//EN"
 "https://www.w3.org/TR/2001/REC-SVG-20010904/DTD/svg10.dtd">
<svg version="1.0" xmlns="https://www.w3.org/2000/svg"
 width="142.000000pt" height="142.000000pt" viewBox="0 0 142.000000 142.000000"
 preserveAspectRatio="xMidYMid meet">
<metadata>
Created by potrace 1.11, written by Peter Selinger 2001-2013
</metadata>
<g transform="translate(0.000000,142.000000) scale(0.100000,-0.100000)"
fill="#000000" stroke="none">
<path d="M664 1405 c-4 -9 0 -23 8 -31 20 -20 50 -7 46 20 -4 26 -45 35 -54
11z"/>
<path d="M486 1376 c-91 -48 -177 -149 -211 -247 -33 -93 -31 -254 3 -247 13
3 16 11 13 33 -25 174 60 351 205 426 52 26 58 33 41 46 -8 7 -25 3 -51 -11z"/>
<path d="M827 1386 c-4 -10 10 -22 46 -40 157 -76 247 -256 216 -431 -29 -165
-166 -299 -336 -328 -56 -10 -74 -22 -58 -39 12 -11 124 15 183 42 81 38 174
129 208 205 56 121 55 275 -2 387 -33 64 -113 150 -170 182 -62 34 -81 39 -87
22z"/>
<path d="M674 1067 l-1 -275 -27 -46 c-56 -96 -181 -114 -253 -37 -17 18 -22
19 -32 8 -9 -12 -4 -21 24 -46 20 -17 39 -31 43 -32 4 0 16 -2 27 -5 113 -24
222 43 245 153 4 21 7 153 6 293 -1 221 -3 255 -16 258 -14 2 -16 -30 -16
-271z"/>
<path d="M90 326 c0 -91 -5 -106 -36 -106 -15 0 -24 -6 -24 -15 0 -22 46 -19
70 5 17 17 20 33 20 105 0 69 -3 85 -15 85 -12 0 -15 -15 -15 -74z"/>
<path d="M140 393 c0 -3 14 -50 31 -104 35 -113 52 -122 82 -43 10 27 27 70
37 96 11 28 15 50 9 53 -17 11 -28 -5 -50 -75 -13 -39 -26 -67 -30 -63 -3 5
-16 38 -29 76 -13 41 -27 67 -36 67 -8 0 -14 -3 -14 -7z"/>
<path d="M435 388 c-3 -8 -5 -55 -3 -104 l3 -89 42 -1 c79 -2 123 37 123 111
0 55 -35 87 -103 93 -44 3 -58 1 -62 -10z m130 -66 c12 -56 -28 -107 -78 -100
-20 3 -22 9 -24 75 -1 66 0 72 20 75 35 6 75 -18 82 -50z"/>
<path d="M630 295 l0 -104 58 2 c65 2 74 20 12 25 -40 3 -41 4 -38 35 3 29 7
32 36 33 59 2 58 22 -1 26 -33 3 -37 6 -37 31 0 25 3 27 40 27 29 0 40 4 40
15 0 12 -13 15 -55 15 l-55 0 0 -105z"/>
<path d="M777 393 c-9 -15 -4 -194 6 -200 16 -10 22 13 21 81 -1 36 0 66 1 66
2 0 24 -34 49 -75 63 -101 76 -95 76 36 0 81 -3 99 -15 99 -12 0 -15 -15 -15
-72 l-1 -73 -45 73 c-42 65 -65 85 -77 65z"/>
<path d="M950 385 c0 -10 10 -15 30 -15 l30 0 0 -91 c0 -68 3 -90 13 -87 8 3
13 33 15 91 l3 87 29 0 c20 0 30 5 30 15 0 12 -15 15 -75 15 -60 0 -75 -3 -75
-15z"/>
<path d="M1145 388 c-31 -82 -64 -193 -59 -197 7 -8 44 37 44 54 0 8 13 13 35
13 30 0 35 -4 45 -34 7 -19 18 -34 26 -34 19 0 17 11 -19 115 -22 62 -37 91
-50 93 -9 2 -19 -2 -22 -10z m39 -85 c6 -20 4 -23 -18 -23 -30 0 -29 -2 -15
40 12 34 19 30 33 -17z"/>
<path d="M1279 383 c-1 -22 -1 -152 0 -173 1 -21 111 -26 111 -5 0 11 -12 15
-42 15 l-43 0 0 87 c0 60 -4 88 -12 90 -7 3 -13 -4 -14 -14z"/>
<path d="M302 213 c2 -10 10 -18 18 -18 8 0 16 8 18 18 2 12 -3 17 -18 17 -15
0 -20 -5 -18 -17z"/>
<path d="M35 50 c-4 -12 -1 -27 5 -35 15 -18 50 -20 50 -4 0 6 -6 9 -14 6 -7
-3 -18 -1 -24 5 -17 17 -2 38 29 38 28 0 32 -5 32 -42 0 -10 4 -15 8 -12 5 3
9 16 9 29 0 13 6 26 13 28 6 3 -14 6 -45 6 -49 1 -58 -2 -63 -19z"/>
<path d="M155 49 c-9 -29 15 -53 44 -44 17 5 21 13 19 33 -4 36 -53 45 -63 11z
m52 -5 c8 -20 -17 -36 -34 -22 -10 8 -10 14 -2 24 15 18 28 18 36 -2z"/>
<path d="M237 64 c-11 -11 -8 -64 3 -64 6 0 10 6 10 13 0 7 9 13 19 13 11 0
18 -4 15 -7 -2 -4 0 -10 6 -14 6 -4 10 9 10 32 0 35 -1 36 -17 21 -15 -15 -18
-15 -27 -2 -7 8 -15 12 -19 8z"/>
<path d="M317 43 c-5 -29 6 -43 36 -43 28 0 20 64 -9 68 -17 2 -23 -3 -27 -25z
m34 -16 c-1 -12 -15 -9 -19 4 -3 6 1 10 8 8 6 -3 11 -8 11 -12z"/>
<path d="M387 62 c6 -4 13 -21 16 -37 l4 -30 2 33 c1 22 6 32 17 32 8 0 12 -4
9 -10 -10 -15 14 -50 34 -50 28 0 47 28 34 48 -7 12 -27 18 -69 19 -32 2 -54
0 -47 -5z m103 -21 c0 -11 -5 -23 -11 -27 -15 -9 -33 12 -26 30 9 23 37 20 37
-3z"/>
<path d="M520 51 c0 -11 -3 -27 -7 -37 -4 -12 -3 -15 5 -10 7 4 12 19 12 32 0
32 24 27 26 -5 2 -38 14 -36 14 2 0 33 -3 37 -25 37 -18 0 -25 -5 -25 -19z"/>
<path d="M587 64 c-14 -15 -7 -53 12 -59 31 -10 52 5 49 34 -2 19 -9 27 -28
29 -14 2 -29 0 -33 -4z m46 -18 c9 -22 -18 -40 -33 -22 -6 9 -9 20 -5 26 9 15
32 12 38 -4z"/>
<path d="M660 34 c0 -21 3 -34 8 -30 4 4 7 17 7 29 0 32 40 30 41 -1 2 -37 14
-38 14 -1 0 33 -2 35 -35 37 -34 3 -35 2 -35 -34z"/>
<path d="M742 54 c2 -9 12 -22 23 -28 11 -6 23 -15 27 -21 4 -6 7 8 7 30 0 35
-1 37 -10 17 -9 -24 -29 -22 -29 4 0 8 -5 14 -11 14 -6 0 -9 -7 -7 -16z"/>
<path d="M814 41 c1 -31 16 -57 16 -28 0 22 27 22 33 0 3 -10 5 0 5 22 0 22
-2 33 -6 25 -9 -20 -32 -24 -32 -5 0 8 -4 15 -8 15 -5 0 -8 -13 -8 -29z"/>
<path d="M889 56 c-1 -9 -2 -22 -3 -28 -2 -16 14 -28 37 -28 29 0 19 64 -10
68 -15 2 -23 -2 -24 -12z m32 -29 c-1 -12 -15 -9 -19 4 -3 6 1 10 8 8 6 -3 11
-8 11 -12z"/>
<path d="M992 35 c0 -22 2 -32 5 -22 4 17 6 18 24 2 24 -23 49 -12 49 20 0 14
5 25 10 25 6 0 10 -14 10 -32 0 -39 13 -29 16 12 2 27 -1 30 -28 30 -23 0 -28
-4 -24 -17 3 -10 2 -24 -3 -31 -6 -10 -11 -10 -21 3 -12 14 -11 18 0 25 8 5
11 12 7 16 -3 4 -13 2 -21 -5 -11 -9 -15 -9 -19 1 -3 7 -5 -5 -5 -27z"/>
<path d="M1120 33 c0 -43 9 -39 15 6 2 17 0 31 -5 31 -6 0 -10 -16 -10 -37z"/>
<path d="M1150 37 c0 -20 4 -37 10 -37 5 0 7 7 3 16 -4 12 -1 15 13 12 10 -2
18 -10 16 -17 -1 -7 2 -10 8 -6 5 3 10 21 10 38 -1 31 -1 31 -16 12 -15 -20
-15 -20 -30 -1 -13 19 -14 17 -14 -17z"/>
<path d="M1222 42 c1 -18 6 -32 10 -32 5 0 6 12 4 26 -7 39 -17 43 -14 6z"/>
<path d="M1250 33 c0 -18 5 -33 11 -33 5 0 8 4 4 9 -3 5 -1 12 4 15 5 3 11 0
14 -7 3 -7 23 -13 46 -14 42 -2 42 -2 39 30 -2 24 -8 33 -25 35 -17 3 -23 -3
-28 -29 -7 -31 -8 -32 -21 -14 -12 15 -11 20 3 30 13 10 11 12 -16 12 -29 0
-31 -3 -31 -34z m104 -2 c3 -5 -1 -11 -9 -15 -15 -6 -29 7 -18 18 9 9 21 8 27
-3z"/>
</g>
</svg>
